Coordinates
version=1
nRows=4
nColumns=63
inDegrees=yes

Units are S.I. units (second, meters, Newtons, ...)
If the header above contains a line with 'inDegrees', this indicates whether rotational values are in degrees (yes) or radians (no).

endheader
time	pelvis_tilt	pelvis_list	pelvis_rotation	pelvis_tx	pelvis_ty	pelvis_tz	hip_flexion_r	hip_adduction_r	hip_rotation_r	knee_angle_r	knee_angle_r_beta	ankle_angle_r	subtalar_angle_r	mtp_angle_r	hip_flexion_l	hip_adduction_l	hip_rotation_l	knee_angle_l	knee_angle_l_beta	ankle_angle_l	subtalar_angle_l	mtp_angle_l	L5_S1_Flex_Ext	L5_S1_Lat_Bending	L5_S1_axial_rotation	L4_L5_Flex_Ext	L4_L5_Lat_Bending	L4_L5_axial_rotation	L3_L4_Flex_Ext	L3_L4_Lat_Bending	L3_L4_axial_rotation	L2_L3_Flex_Ext	L2_L3_Lat_Bending	L2_L3_axial_rotation	L1_L2_Flex_Ext	L1_L2_Lat_Bending	L1_L2_axial_rotation	L1_T12_Flex_Ext	L1_T12_Lat_Bending	L1_T12_axial_rotation	Abs_r3	Abs_r2	Abs_r1	Abs_t1	Abs_t2	neck_flexion	neck_bending	neck_rotation	arm_flex_r	arm_add_r	arm_rot_r	elbow_flex_r	pro_sup_r	wrist_flex_r	wrist_dev_r	arm_flex_l	arm_add_l	arm_rot_l	elbow_flex_l	pro_sup_l	wrist_flex_l	wrist_dev_l
      3.70000000	     -8.65273570	     -4.55230958	    100.28526610	      0.16095088	      0.97260507	      0.65367703	     -1.08056178	     -7.22352587	    -23.99437378	     14.39503311	      0.25124072	     34.24067723	     12.25131364	      0.00000000	      0.03697431	      6.01501726	     13.56115426	      9.53425435	      0.16640413	     26.18969848	     -0.45190429	      0.00000000	     -0.26036609	     -0.02166036	     -0.25877929	     -0.48352586	     -0.02880828	     -0.27495300	     -0.42775544	     -0.05266501	     -0.27495300	     -0.29757240	     -0.05266501	     -0.22643188	     -0.24177595	     -0.04416981	     -0.21025817	     -0.14877318	     -0.03355190	     -0.19408447	     -1.85976892	     -0.24502637	     -1.43925278	      0.00000000	      0.00000000	     19.25918353	     -1.70548686	      9.86412077	      7.75083109	    -10.39206248	    120.98644043	      2.22057149	      1.15398488	     -4.67551971	    -15.86054382	     -0.10332424	    -18.46885390	     -6.84497834	    130.58480906	     86.35938500	      0.88557838	     22.96542107
      3.72500000	     -8.78594701	     -4.50236385	     99.81745875	      0.16112360	      0.97293164	      0.65274059	     -1.19670119	     -7.39383204	    -23.80731422	     14.31261287	      0.24980222	     34.08800679	     12.74780519	      0.00000000	     -0.17469921	      6.21846332	     14.02113042	      9.46620038	      0.16521636	     25.38331391	     -2.12422843	      0.00000000	     -0.21861094	     -0.01131963	     -0.23331085	     -0.40598238	     -0.01505510	     -0.24789278	     -0.35915592	     -0.02752254	     -0.24789278	     -0.24985044	     -0.02752254	     -0.20414700	     -0.20300212	     -0.02308298	     -0.18956507	     -0.12491429	     -0.01753410	     -0.17498314	     -1.56151609	     -0.12804987	     -1.29760497	      0.00000000	      0.00000000	     19.78006436	     -2.63287933	      8.31647721	      7.75711761	    -10.42631777	    122.59167025	      2.01664694	      1.16556276	     -5.41242884	    -15.34811350	     -4.17478479	    -17.26619124	     -5.64051457	    125.98382410	     81.51928933	     -3.49001031	     25.94732174
      3.75000000	     -8.90216694	     -4.40322982	     99.38223610	      0.16129103	      0.97318882	      0.65148531	     -1.36996701	     -7.52925095	    -23.54449641	     14.25809877	      0.24885077	     33.93086235	     13.13678527	      0.00000000	     -0.49856211	      6.35415979	     14.17175393	      9.24413600	      0.16134061	     24.75532527	     -3.14515322	      0.00000000	     -0.18038747	     -0.00371664	     -0.32440913	     -0.33499757	     -0.00494313	     -0.34468470	     -0.29635858	     -0.00903664	     -0.34468470	     -0.20616484	     -0.00903664	     -0.28385799	     -0.16750781	     -0.00757897	     -0.26358242	     -0.10307340	     -0.00575708	     -0.24330685	     -1.28848967	     -0.04204339	     -1.80426626	      0.00000000	      0.00000000	     19.54738159	     -3.54736788	      7.34100282	      8.02915436	    -10.46192964	    124.35598584	      2.03305287	      1.23157865	     -5.98726129	    -14.72614186	     -7.65813160	    -16.49602820	     -5.38646541	    120.88521969	     78.65313547	     -3.75889198	     29.02084890
      3.77500000	     -9.07844867	     -4.31541085	     99.16642400	      0.16139165	      0.97345225	      0.65043944	     -1.56346444	     -7.66664463	    -23.21675302	     14.15391292	      0.24703238	     33.64782552	     12.88763027	      0.00000000	     -0.77228408	      6.51411862	     13.99646458	      9.06342365	      0.15818658	     24.64457358	     -3.21051618	      0.00000000	     -0.13885691	     -0.00417811	     -0.50642142	     -0.25787116	     -0.00555688	     -0.53807276	     -0.22812801	     -0.01015865	     -0.53807276	     -0.15869956	     -0.01015865	     -0.44311874	     -0.12894252	     -0.00852000	     -0.41146740	     -0.07934284	     -0.00647189	     -0.37981606	     -0.99184100	     -0.04726360	     -2.81656399	      0.00000000	      0.00000000	     18.73407757	     -4.29949659	      7.18119307	      8.34511720	    -10.43911828	    124.70603318	      2.32171596	      1.37376378	     -6.38965165	    -14.22627320	    -10.22598502	    -16.31319193	     -4.77242408	    114.81498071	     78.45188453	     -3.41532588	     30.29659134
